<svg xmlns="http://www.w3.org/2000/svg" width="18.208" height="18.161" viewBox="0 0 18.208 18.161"><g transform="translate(-3.5 -3.5)"><path d="M12.6,3.5a9.115,9.115,0,0,0-9.1,9.1c.5,12.078,17.71,12.074,18.208,0a9.115,9.115,0,0,0-9.1-9.1Zm0,17.25A8.155,8.155,0,0,1,4.458,12.6C4.906,1.8,20.3,1.8,20.75,12.6A8.155,8.155,0,0,1,12.6,20.75Z" fill="#d40d7e"/><path d="M25.927,15.5H19.7a1.2,1.2,0,0,0-1.2,1.2v8.146a1.2,1.2,0,0,0,1.2,1.2h6.229a1.2,1.2,0,0,0,1.2-1.2V16.7A1.2,1.2,0,0,0,25.927,15.5Zm.24,9.344a.24.24,0,0,1-.24.24H19.7a.24.24,0,0,1-.24-.24V16.7a.24.24,0,0,1,.24-.24h6.229a.24.24,0,0,1,.24.24Z" transform="translate(-10.208 -8.167)" fill="#d40d7e"/><path d="M28.812,38H24.979a.479.479,0,1,0,0,.958h3.833a.479.479,0,1,0,0-.958Z" transform="translate(-14.292 -23.479)" fill="#d40d7e"/><path d="M28.812,30.5H24.979a.479.479,0,1,0,0,.958h3.833a.479.479,0,1,0,0-.958Z" transform="translate(-14.292 -18.375)" fill="#d40d7e"/><path d="M28.812,23H24.979a.479.479,0,1,0,0,.958h3.833a.479.479,0,1,0,0-.958Z" transform="translate(-14.292 -13.271)" fill="#d40d7e"/></g></svg>