<svg xmlns="http://www.w3.org/2000/svg" width="16" height="21.895" viewBox="0 0 16 21.895"><g transform="translate(-6.5 -6)"><path d="M18.921,9H11.342a.842.842,0,1,0,0,1.684h7.579a.842.842,0,0,0,0-1.684Z" transform="translate(-0.632 2.053)" fill="#d40d7e"/><path d="M18.921,13H11.342a.842.842,0,1,0,0,1.684h7.579a.842.842,0,0,0,0-1.684Z" transform="translate(-0.632 1.421)" fill="#d40d7e"/><path d="M18.921,17H11.342a.842.842,0,1,0,0,1.684h7.579a.842.842,0,0,0,0-1.684Z" transform="translate(-0.632 0.789)" fill="#d40d7e"/><path d="M18.921,21H11.342a.842.842,0,0,0,0,1.684h7.579a.842.842,0,0,0,0-1.684Z" transform="translate(-0.632 0.158)" fill="#d40d7e"/><path d="M6.5,5.526V22.368a2.529,2.529,0,0,0,2.526,2.526H19.974A2.529,2.529,0,0,0,22.5,22.368V5.526A2.529,2.529,0,0,0,19.974,3H9.026A2.529,2.529,0,0,0,6.5,5.526ZM19.974,23.211H9.026a.843.843,0,0,1-.842-.842V5.526a.843.843,0,0,1,.842-.842H19.974a.843.843,0,0,1,.842.842V22.368A.843.843,0,0,1,19.974,23.211Z" transform="translate(0 3)" fill="#d40d7e"/></g></svg>