<svg xmlns="http://www.w3.org/2000/svg" width="18.208" height="18.208" viewBox="0 0 18.208 18.208"><g transform="translate(0 0)"><path d="M9.1,18.208A9.1,9.1,0,0,1,2.667,2.667,9.1,9.1,0,0,1,15.542,15.542,9.044,9.044,0,0,1,9.1,18.208Zm0-17.07A7.966,7.966,0,1,0,17.07,9.1,7.975,7.975,0,0,0,9.1,1.138Z" transform="translate(0 0)" fill="#d40d7e"/><path d="M186.561,101.121a1.423,1.423,0,1,1,1.423-1.423.569.569,0,0,0,1.138,0,2.565,2.565,0,0,0-1.992-2.5v-.634a.569.569,0,0,0-1.138,0V97.2a2.56,2.56,0,0,0,.569,5.057,1.423,1.423,0,1,1-1.423,1.423.569.569,0,1,0-1.138,0,2.565,2.565,0,0,0,1.992,2.5v.634a.569.569,0,0,0,1.138,0v-.634a2.56,2.56,0,0,0-.569-5.057Z" transform="translate(-177.456 -92.586)" fill="#d40d7e"/></g></svg>