<svg xmlns="http://www.w3.org/2000/svg" width="18.161" height="18.161" viewBox="0 0 18.161 18.161"><path d="M14.648,2.641V1.211h.605V0H10.41V1.211h.605V2.643A7.9,7.9,0,0,0,6.438,5.7l.984.705a6.68,6.68,0,0,1,4.3-2.68,6.66,6.66,0,0,1,7.769,6.565,6.66,6.66,0,0,1-12.07,3.884l-.983.706a7.869,7.869,0,1,0,8.21-12.241Zm-2.421-.193V1.211h1.211V2.448A7.791,7.791,0,0,0,12.226,2.448Z" transform="translate(-2.54)" fill="#d40d7e"/><path d="M0,16H5.448v1.211H0Z" transform="translate(0 -6.314)" fill="#d40d7e"/><path d="M2,12H7.448v1.211H2Z" transform="translate(-0.789 -4.736)" fill="#d40d7e"/><path d="M2,20H7.448v1.211H2Z" transform="translate(-0.789 -7.893)" fill="#d40d7e"/><path d="M18.808,10.643l-2.214,2.214a1.8,1.8,0,0,0-.778-.182,1.816,1.816,0,1,0,1.816,1.816,1.8,1.8,0,0,0-.182-.778L19.664,11.5ZM15.816,15.1a.605.605,0,1,1,.605-.605A.606.606,0,0,1,15.816,15.1Z" transform="translate(-5.525 -4.2)" fill="#d40d7e"/></svg>