<svg xmlns="http://www.w3.org/2000/svg" width="18.45" height="16.792" viewBox="0 0 18.45 16.792"><g transform="translate(0 -23)"><g transform="translate(0 23.001)"><path d="M186.405,131.7a2.7,2.7,0,1,0-2.7,2.7A2.706,2.706,0,0,0,186.405,131.7Zm-2.7,1.622a1.622,1.622,0,1,1,1.622-1.622A1.623,1.623,0,0,1,183.7,133.324Z" transform="translate(-174.478 -125.18)" fill="#d40d7e"/><path d="M14.888,194.295a2.153,2.153,0,1,0-.441,0,3.751,3.751,0,0,0-1.645.484,4.857,4.857,0,0,0-7.155,0A3.757,3.757,0,0,0,4,194.3a2.153,2.153,0,1,0-.441,0A3.788,3.788,0,0,0,0,198.072v1.622a.541.541,0,0,0,.541.541H4.36a.541.541,0,0,0,.541.541h8.648a.541.541,0,0,0,.541-.541h3.82a.541.541,0,0,0,.541-.541v-1.622A3.788,3.788,0,0,0,14.888,194.295Zm-1.294-2.142a1.072,1.072,0,1,1,1.072,1.072A1.073,1.073,0,0,1,13.594,192.153Zm-10.883,0a1.072,1.072,0,1,1,1.072,1.072A1.073,1.073,0,0,1,2.712,192.153Zm-1.631,7v-1.081A2.706,2.706,0,0,1,5,195.659a6.32,6.32,0,0,0-.642,3.494Zm11.928.541H5.441v-1.622a3.784,3.784,0,1,1,7.567,0Zm4.36-.541H14.09a6.319,6.319,0,0,0-.642-3.494,2.707,2.707,0,0,1,3.921,2.413Z" transform="translate(0 -183.982)" fill="#d40d7e"/><path d="M196.775,26.085a.54.54,0,0,0,.764,0l2.162-2.162a.541.541,0,1,0-.764-.764l-1.78,1.78-.735-.735a.541.541,0,0,0-.764.764Z" transform="translate(-188.455 -23.001)" fill="#d40d7e"/></g></g></svg>