<svg xmlns="http://www.w3.org/2000/svg" width="12.802" height="12.802" viewBox="0 0 12.802 12.802"><path d="M193.747,0h-4.655a.582.582,0,1,0,0,1.164h3.25l-5.989,5.99a.582.582,0,1,0,.823.823l5.99-5.989v3.25a.582.582,0,1,0,1.164,0V.582A.582.582,0,0,0,193.747,0Z" transform="translate(-181.527)" fill="#bedf48"/><path d="M9.892,96.582a.582.582,0,0,0-.582.582V102.4H1.164V94.255H6.4a.582.582,0,1,0,0-1.164H.582A.582.582,0,0,0,0,93.673v9.311a.582.582,0,0,0,.582.582H9.892a.582.582,0,0,0,.582-.582V97.164A.582.582,0,0,0,9.892,96.582Z" transform="translate(0 -90.763)" fill="#bedf48"/></svg>