<svg xmlns="http://www.w3.org/2000/svg" width="109.093" height="93.228" viewBox="0 0 109.093 93.228"><g transform="translate(0 -33.811)"><path d="M107.254,77.137,90.584,43.551A2.574,2.574,0,0,0,88.377,42.2l-1.1.245H65.7a11.522,11.522,0,0,0-22.309,0H21.819l-1.1-.245a2.574,2.574,0,0,0-2.206,1.348L1.839,77.137A2.329,2.329,0,0,0,0,79.466c0,10.3,9.316,18.754,20.715,18.754s20.838-8.458,20.838-18.754a2.452,2.452,0,0,0-1.839-2.329L24.883,47.351H43.269a11.4,11.4,0,0,0,8.825,8.825V99.2c-7.967.981-14.219,6.987-15.2,13.116H31.5a2.942,2.942,0,0,0-2.7,2.7v9.806a2.451,2.451,0,0,0,2.672,2.209l.024,0H77.591a2.451,2.451,0,0,0,2.694-2.182c0-.008,0-.016,0-.024v-9.806a2.942,2.942,0,0,0-2.7-2.7H72.2c-.981-6.129-7.232-12.135-15.2-13.116V56.177a11.4,11.4,0,0,0,8.825-8.825H84.209L69.378,77.137a2.452,2.452,0,0,0-1.839,2.329c0,10.3,9.316,18.754,20.838,18.754s20.715-8.458,20.715-18.754A2.327,2.327,0,0,0,107.254,77.137ZM20.715,93.072c-7.722,0-14.219-5.271-15.567-11.4H36.405C35.057,87.8,28.56,93.072,20.715,93.072ZM34.2,76.769H7.355L20.715,49.925Zm41.186,40.45v4.9H33.709v-4.9Zm-8.213-4.9H41.921c.981-4.9,6.251-8.58,12.625-8.58S66.191,107.413,67.172,112.316ZM54.546,51.641a6.619,6.619,0,1,1,6.619-6.619A6.619,6.619,0,0,1,54.546,51.641Zm33.831-1.716,13.361,26.844H74.894Zm0,43.147c-7.845,0-14.341-5.271-15.69-11.4h31.257C102.6,87.8,96.1,93.072,88.377,93.072Z" fill="#d40d7e"/></g></svg>