<svg xmlns="http://www.w3.org/2000/svg" width="14.045" height="14.045" viewBox="0 0 14.045 14.045"><path d="M13.822,6.348,7.326.122a.439.439,0,0,0-.607,0L.216,6.355A.742.742,0,0,0,0,6.876a.733.733,0,0,0,.732.732H1.755v5.559a.878.878,0,0,0,.878.878H5.12a.439.439,0,0,0,.439-.439V9.8a.147.147,0,0,1,.146-.146H8.339a.147.147,0,0,1,.146.146v3.8a.439.439,0,0,0,.439.439h2.487a.878.878,0,0,0,.878-.878V7.607h1.024a.733.733,0,0,0,.732-.732.747.747,0,0,0-.223-.527Zm0,0" transform="translate(0 0)" fill="#d40d7e"/></svg>