<svg xmlns="http://www.w3.org/2000/svg" width="21.9" height="21.895" viewBox="0 0 21.9 21.895"><g transform="translate(0 -0.036)"><g transform="translate(0 0.036)"><path d="M11.788,109.476l-3.351,3.351h0A3.554,3.554,0,0,1,3.41,107.8h0l3.351-3.351a1.185,1.185,0,0,0-1.676-1.675l-3.351,3.351h0a5.924,5.924,0,0,0,8.378,8.377h0l3.351-3.351a1.185,1.185,0,0,0-1.675-1.675Z" transform="translate(0 -94.34)" fill="#d40d7e"/><path d="M116.235,5.957a5.924,5.924,0,0,0-10.112-4.189h0l-3.351,3.351a1.185,1.185,0,1,0,1.675,1.675L107.8,3.444h0a3.554,3.554,0,0,1,5.027,5.026h0l-3.351,3.351a1.185,1.185,0,1,0,1.676,1.675l3.351-3.351h0A5.885,5.885,0,0,0,116.235,5.957Z" transform="translate(-94.335 -0.036)" fill="#d40d7e"/><path d="M81.561,89.938a1.185,1.185,0,0,0,1.675,0l6.7-6.7a1.185,1.185,0,0,0-1.675-1.675l-6.7,6.7A1.185,1.185,0,0,0,81.561,89.938Z" transform="translate(-74.799 -74.802)" fill="#d40d7e"/></g></g></svg>