<svg xmlns="http://www.w3.org/2000/svg" width="146.03" height="27.216" viewBox="0 0 146.03 27.216"><g transform="translate(-523 -115.784)"><g transform="translate(432.943 -1499.184)"><path d="M275.807,827.895a5.175,5.175,0,0,0,2.179-2.341,11.749,11.749,0,0,0,.945-2.7,35.5,35.5,0,0,0,.417-6.037s.226-1.813.5-3.627c.089-.6.219-1.19.3-1.734a15.6,15.6,0,0,0,.334-2.074c.01-.72-.26-1.023-.5-1.053-.443-.056-.763-.165-1.281,1.286s-1.63,6.468-1.63,6.468h-5.927a8.531,8.531,0,0,1,.031,1.239,8.788,8.788,0,0,1-.176,1.238s3.743-1.018,5.562,2.05S275.807,827.895,275.807,827.895Z" transform="translate(-168.386 814.247)" fill="#d40d7f"/><path d="M308.432,748h2.96l.8-8.589.014-.154-.028-.131a1.206,1.206,0,0,0-.989-.8,1.253,1.253,0,0,0-1.183.873Z" transform="translate(-203.224 879.37)" fill="#d40d7f"/><path d="M248.73,711.371l3.07-.022-.569-11.453a1.9,1.9,0,0,0-.708-.829,1.448,1.448,0,0,0-1.188.077,1.257,1.257,0,0,0-.461.674Z" transform="translate(-147.664 916)" fill="#d40d7f"/><path d="M99.256,750.052a16.307,16.307,0,0,0,.642-6.315,46.049,46.049,0,0,0-2.149-10.3.969.969,0,0,0-1.653.5,15.722,15.722,0,0,0,.448,4.291,54.607,54.607,0,0,1,.69,5.5,21.049,21.049,0,0,1-.268,3.079c-.244,1.219-.465,1.556-.731,1.785-.159.137-.454-.354-.922-1.024a4.973,4.973,0,0,0-1.184-1.336,5.069,5.069,0,0,0-3.162-1.265c-1.093.017-1.237,1.2-.236,2.039a14.486,14.486,0,0,1,2.742,3.217,13.941,13.941,0,0,1,.818,2.189,14.763,14.763,0,0,0,1.15,2.388,7.236,7.236,0,0,0,3.074,2.7,5.522,5.522,0,0,0,2.845.448s2.76-.431,3.579-2.429.762-3.306-.532-4.456a4.323,4.323,0,0,0-2.487-.474,11.285,11.285,0,0,0-1.84.2Z" transform="translate(0 884.194)" fill="#d40d7f"/></g><path d="M11.88-.27A73.285,73.285,0,0,1,4.14.18,3.539,3.539,0,0,1,1.548-.648,3.539,3.539,0,0,1,.72-3.24V-9a3.762,3.762,0,0,1,.855-2.745A3.762,3.762,0,0,1,4.32-12.6H10.8v2.52H5.04A.955.955,0,0,0,3.96-9v5.76a.888.888,0,0,0,.243.657.888.888,0,0,0,.657.243q2.07,0,3.78-.09V-5.04H6.3V-7.2h5.58ZM19.62,0H13.14V-2.52h1.62v-7.56H13.14V-12.6h6.48v2.52H18v7.56h1.62Zm6.93-3.78,3.06-8.82h3.51L28.35,0h-3.6L19.98-12.6h3.51ZM44.01,0H34.02V-12.6h9.99v2.52H37.26v2.43h5.31v2.52H37.26v2.61h6.75ZM75.69,0H72.45V-12.6h9.99v2.52H75.69v2.97H81v2.52H75.69ZM89.64,0H83.16V-2.52h1.62v-7.56H83.16V-12.6h6.48v2.52H88.02v7.56h1.62Zm6.93-3.78,3.06-8.82h3.51L98.37,0h-3.6L90-12.6h3.51ZM114.03,0h-9.99V-12.6h9.99v2.52h-6.75v2.43h5.31v2.52h-5.31v2.61h6.75Z" transform="translate(555 138)" fill="#717070"/><path d="M11.88-7.02,9.36-2.52H6.84L4.32-7.02V0H1.08V-12.6H4.5L8.1-5.94l3.6-6.66h3.42V0H11.88ZM27.27,0H17.28V-12.6h9.99v2.52H20.52v2.43h5.31v2.52H20.52v2.61h6.75Z" transform="translate(599 138)" fill="#d30e80"/></g></svg>