<svg xmlns="http://www.w3.org/2000/svg" width="17.157" height="17.157" viewBox="0 0 17.157 17.157"><g transform="translate(0 -0.157)"><path d="M12.331,17.157a4.78,4.78,0,0,1-1.64-.293,17.488,17.488,0,0,1-6.35-4.048A17.487,17.487,0,0,1,.293,6.466,4.746,4.746,0,0,1,.051,4.134,4.866,4.866,0,0,1,2.552.571,4.778,4.778,0,0,1,4.84,0a.536.536,0,0,1,.524.424l.842,3.927a.536.536,0,0,1-.145.491L4.623,6.28a14.113,14.113,0,0,0,6.255,6.255L12.315,11.1a.536.536,0,0,1,.491-.145l3.927.842a.536.536,0,0,1,.424.524,4.777,4.777,0,0,1-.571,2.288,4.866,4.866,0,0,1-3.562,2.5,4.769,4.769,0,0,1-.693.051ZM4.412,1.1a3.757,3.757,0,0,0-3.11,5,16.262,16.262,0,0,0,9.756,9.756,3.757,3.757,0,0,0,5-3.11l-3.195-.685-1.5,1.5a.536.536,0,0,1-.607.106A15.181,15.181,0,0,1,3.488,6.4a.536.536,0,0,1,.106-.607l1.5-1.5Z" transform="translate(0 0.157)" fill="#d40d7e"/></g></svg>