<svg xmlns="http://www.w3.org/2000/svg" width="17.515" height="17.593" viewBox="0 0 17.515 17.593"><path d="M10.894,28.49l1.237-4.517a8.721,8.721,0,1,1,7.557,4.366h0a8.714,8.714,0,0,1-4.17-1.06ZM15.731,25.7l.264.16a7.239,7.239,0,0,0,3.692,1.008h0a7.248,7.248,0,1,0-6.14-3.4l.173.274-.733,2.674Zm0,0" transform="translate(-10.894 -10.897)" fill="#fff"/><path d="M19.344,36.369l1.194-4.362a8.419,8.419,0,1,1,7.3,4.215h0A8.416,8.416,0,0,1,23.812,35.2Zm0,0" transform="translate(-19.04 -19.08)" fill="none"/><g transform="translate(0.001 0)"><path d="M10.894,28.49l1.237-4.517a8.721,8.721,0,1,1,7.557,4.366h0a8.714,8.714,0,0,1-4.17-1.06ZM15.731,25.7l.264.16a7.239,7.239,0,0,0,3.692,1.008h0a7.248,7.248,0,1,0-6.14-3.4l.173.274-.733,2.674Zm0,0" transform="translate(-10.894 -10.897)" fill="#fff"/><path d="M134.7,141.995c-.16-.363-.335-.37-.491-.376-.127-.006-.272-.006-.418-.006a.8.8,0,0,0-.581.272,2.443,2.443,0,0,0-.763,1.818,4.234,4.234,0,0,0,.89,2.254,8.944,8.944,0,0,0,3.722,3.289c1.838.726,2.216.582,2.615.545a2.2,2.2,0,0,0,1.471-1.039,1.819,1.819,0,0,0,.127-1.039c-.054-.091-.2-.145-.418-.254s-1.289-.639-1.489-.709-.345-.109-.491.109-.559.709-.69.854-.254.164-.472.055a5.959,5.959,0,0,1-1.752-1.082,6.565,6.565,0,0,1-1.212-1.509c-.127-.218,0-.325.1-.444a6.568,6.568,0,0,0,.545-.745.4.4,0,0,0-.018-.382C135.314,143.5,134.891,142.426,134.7,141.995Zm0,0" transform="translate(-128.083 -136.923)" fill="#fff" fill-rule="evenodd"/></g></svg>