<svg xmlns="http://www.w3.org/2000/svg" width="21.677" height="21.773" viewBox="0 0 21.677 21.773"><g transform="translate(-0.489 -0.491)"><path d="M10.894,32.67l1.531-5.591a10.793,10.793,0,1,1,9.352,5.4h0a10.784,10.784,0,0,1-5.161-1.312Zm5.986-3.454.327.2a8.959,8.959,0,0,0,4.569,1.247h0a8.97,8.97,0,1,0-7.6-4.2l.214.339-.907,3.31Zm0,0" transform="translate(-10.405 -10.406)" fill="#fff"/><path d="M19.344,40.4l1.478-5.4a10.419,10.419,0,1,1,9.029,5.217h0a10.416,10.416,0,0,1-4.977-1.267Zm0,0" transform="translate(-18.479 -18.517)" fill="#d40d7e"/><g transform="translate(0.49 0.491)"><path d="M10.894,32.67l1.531-5.591a10.793,10.793,0,1,1,9.352,5.4h0a10.784,10.784,0,0,1-5.161-1.312Zm5.986-3.454.327.2a8.959,8.959,0,0,0,4.569,1.247h0a8.97,8.97,0,1,0-7.6-4.2l.214.339-.907,3.31Zm0,0" transform="translate(-10.894 -10.897)" fill="#fff"/><path d="M135.233,142.086c-.2-.449-.414-.458-.607-.466-.157-.007-.337-.007-.517-.007a.989.989,0,0,0-.719.337,3.023,3.023,0,0,0-.944,2.25,5.241,5.241,0,0,0,1.1,2.789,11.069,11.069,0,0,0,4.607,4.071c2.274.9,2.742.72,3.236.674a2.723,2.723,0,0,0,1.82-1.285,2.252,2.252,0,0,0,.157-1.285c-.067-.113-.247-.18-.517-.314s-1.595-.791-1.843-.877-.427-.134-.607.135-.692.877-.853,1.057-.314.2-.584.068a7.374,7.374,0,0,1-2.169-1.339,8.125,8.125,0,0,1-1.5-1.868c-.157-.27,0-.4.119-.55a8.128,8.128,0,0,0,.674-.922.494.494,0,0,0-.023-.473C136,143.953,135.472,142.619,135.233,142.086Zm0,0" transform="translate(-127.046 -135.808)" fill="#fff" fill-rule="evenodd"/></g></g></svg>